<?xml version="1.0" standalone="no"?>
<!DOCTYPE svg PUBLIC "-//W3C//DTD SVG 20010904//EN"
 "http://www.w3.org/TR/2001/REC-SVG-20010904/DTD/svg10.dtd">
<svg version="1.0" xmlns="http://www.w3.org/2000/svg"
 width="480.000000pt" height="480.000000pt" viewBox="0 0 480.000000 480.000000"
 preserveAspectRatio="xMidYMid meet">
<metadata>
Created by potrace 1.16, written by Peter Selinger 2001-2019
</metadata>
<g transform="translate(0.000000,480.000000) scale(0.100000,-0.100000)"
fill="#000000" stroke="none">
<path d="M2402 3708 c3 -1029 4 -1095 21 -1126 23 -43 72 -89 122 -116 l40
-21 1108 -3 1107 -2 0 1180 0 1180 -1200 0 -1200 0 2 -1092z"/>
<path d="M840 3614 l0 -386 198 4 c175 4 203 7 253 26 80 32 140 88 175 164
27 59 29 71 29 193 0 119 -2 135 -26 185 -74 159 -169 200 -461 200 l-168 0 0
-386z m395 277 c56 -23 97 -63 124 -120 23 -49 26 -69 26 -156 -1 -216 -85
-293 -326 -298 l-104 -2 -3 290 c-1 159 -1 294 2 300 5 14 242 2 281 -14z"/>
<path d="M3507 1580 c-95 -24 -178 -97 -224 -198 -46 -99 -46 -291 1 -394 68
-154 230 -233 401 -198 82 17 122 39 177 97 79 85 108 165 108 298 0 93 -18
167 -54 229 -34 58 -128 143 -174 157 -50 15 -188 20 -235 9z m198 -99 c46
-21 101 -79 123 -130 24 -57 28 -225 7 -297 -43 -149 -190 -225 -320 -165 -55
25 -119 100 -136 158 -17 60 -17 225 0 278 19 58 69 120 121 149 56 32 145 35
205 7z"/>
<path d="M860 1185 l0 -385 55 0 55 0 0 185 0 185 155 0 155 0 0 45 0 45 -155
0 -155 0 0 115 0 115 170 0 170 0 0 40 0 40 -225 0 -225 0 0 -385z"/>
</g>
</svg>
