<svg xmlns="http://www.w3.org/2000/svg" height="40" viewBox="0 96 960 960" width="40"><path d="M120 936V379.333h163.333V216h393.334v326.667H840V936H528.667V772.667h-97.334V936H120Zm66.666-66.666h96.667v-96.667h-96.667v96.667Zm0-163.334h96.667v-96.667h-96.667V706Zm0-163.333h96.667V446h-96.667v96.667ZM350 706h96.667v-96.667H350V706Zm0-163.333h96.667V446H350v96.667Zm0-163.334h96.667v-96.667H350v96.667ZM513.333 706H610v-96.667h-96.667V706Zm0-163.333H610V446h-96.667v96.667Zm0-163.334H610v-96.667h-96.667v96.667Zm163.334 490.001h96.667v-96.667h-96.667v96.667Zm0-163.334h96.667v-96.667h-96.667V706Z"/></svg>