<svg xmlns="http://www.w3.org/2000/svg" height="40" viewBox="0 96 960 960" width="40"><path d="M764 936 523.666 695.666l66-65.999L830 870.001 764 936Zm-571.334 0-65.999-65.999L412 584.667l-94-94.001-24.667 24.667L247 469v84l-25.333 25.333L100 456.666l25.333-25.333H210l-48.667-48.667L296 248q18-18 39-25t45-7q24 0 45 8.667 21 8.666 38.999 26.666l-102 102.001L410.666 402l-25.333 25.333 92 92.001L588.667 408q-6.667-12.333-10.5-27.667-3.833-15.333-3.833-32 0-55 39.166-94.166Q652.667 215 707.667 215q15 0 26.5 3T755 226.333L665.334 316l74 74L829 300.333q5.667 10 8.833 22.167Q841 334.667 841 349.667q0 54.999-39.167 94.166Q762.667 483 707.667 483q-16 0-28.667-2.334-12.667-2.333-23.667-7.333L192.666 936Z"/></svg>