<svg xmlns="http://www.w3.org/2000/svg" height="40" viewBox="0 96 960 960" width="40"><path d="m804 804.667-66.666-66.666V632.667H794q15.333 0 26.333-11 11.001-11 11.001-26.334 0-15.333-11.001-26.333-11-11.001-26.333-11.001h-56.666V318.666H500.667V260q0-15.333-11-26.334-11-11-26.334-11-15.333 0-26.333 11-11 11.001-11 26.334v58.666H317.999L251.333 252H358q7.333-40.667 36-68.333Q422.667 156 463.333 156q40.667 0 69.334 27.667 28.666 27.666 36 68.333h168.667q27 0 46.833 19.833T804 318.666v168.667q40.667 7.334 67.333 37.334 26.667 30 26.667 70.666 0 40.667-26.667 68.334-26.666 27.666-67.333 35v106ZM529.333 530Zm276.334 467L59 250.333l47.667-47.666 746.666 746.666L805.667 997ZM432.334 623.666ZM186.666 936q-27.5 0-47.083-19.583T120 869.334V701.333q45.333-3.333 78.333-33.166 33-29.834 33-74.167t-33-74.167Q165.333 490 120 486.667V318.666q0-14.043 5.333-26.021 5.334-11.979 14.334-20.979l46.999 47v116.001q50.1 18.544 80.717 62.124 30.616 43.579 30.616 97.357 0 52.852-30.666 96.518-30.667 43.667-80.667 62.667v116.001h116.001q19-50 62.686-80.667 43.686-30.666 96.666-30.666 52.981 0 96.648 30.666 43.666 30.667 62.666 80.667h116.001l47 46.999q-9 9-20.979 14.334Q751.377 936 737.334 936H569.333q-3.333-45.333-33.166-78.333-29.834-33-74.167-33t-74.167 33Q358 890.667 354.667 936H186.666Z"/></svg>