<svg xmlns="http://www.w3.org/2000/svg" height="40" viewBox="0 96 960 960" width="40"><path d="M389.333 712.667 480 624l90.667 88.667L619.333 664l-90-88.667 90-89.333-48.666-48.667L480 526l-90.667-88.667L340.667 486l90 89.333-90 88.667 48.666 48.667ZM480 975.333q-139.667-35-229.833-161.5Q160 687.333 160 535.333v-240l320-120 320 120v240q0 152-90.167 278.5-90.166 126.5-229.833 161.5ZM480 906q111.334-36.333 182.334-139.667 71-103.333 71-231V341.666L480 246.333l-253.334 95.333v193.667q0 127.667 71 231Q368.666 869.667 480 906Zm0-330Z"/></svg>