<svg xmlns="http://www.w3.org/2000/svg" height="40" viewBox="0 96 960 960" width="40"><path d="M194.667 1016Q146 1016 113 983t-33-81.667q0-48.666 33-81.666t81.667-33q29 0 53.333 12.833 24.333 12.834 40 36.5 64.333-34 105.667-94.333Q435 681.333 445.334 609.333H302q-10.667 37.334-41 59.334-30.334 22-66.333 22-48.667 0-81.667-33T80 576q0-48.667 33-81.667t81.667-33q35.999 0 66.333 22 30.333 22 41 59.334h143.334Q435 470.667 394 410.333 353 350 288 316q-15.667 24.333-40 36.833t-53.333 12.5q-48.667 0-81.667-33t-33-81.666Q80 202 113 169t81.667-33q48.666 0 81.666 33.667 33 33.666 32.333 82.333Q394.333 294 448 372t65.333 170.667h238.668L674 464.666l47.333-47.333L880 576 721.333 734.667 674 687.334l78.001-78.001H513.333q-11.666 94-66 170.834Q393 857 308.666 900q.667 48.667-32.333 82.333-33 33.667-81.666 33.667Z"/></svg>