<svg xmlns="http://www.w3.org/2000/svg" height="40" viewBox="0 96 960 960" width="40"><path d="m768 432.666-45.333-103.333-106-47.333 106-46.667 45.333-100 45.333 100 106 46.667-106 47.333L768 432.666ZM768 1016l-45.333-100.666-106-46.667 106-46.667L768 718.001 813.333 822l106 46.667-106 46.667L768 1016ZM341.999 873.333l-94.666-204.667L40 575.333 247.333 482l94.666-203.999L437.333 482l206.666 93.333-206.666 93.333-95.334 204.667Zm0-163.333 45.334-92.667 94-42-94-42-45.334-92.667-44.666 92.667-94.667 42 94.667 42L341.999 710Zm0-134.667Z"/></svg>