<svg xmlns="http://www.w3.org/2000/svg" height="40" viewBox="0 96 960 960" width="40"><path d="m345.333 996-76-129.333-148.666-31.334 16-147.333L40 576l96.667-111.333-16-147.334L269.333 286l76-130L480 216.667 614.667 156l76.666 130 148 31.333-16 147.334L920 576l-96.667 112 16 147.333-148 31.334L614.667 996 480 935.333 345.333 996Zm29.334-86.666L480 864.667l108 44.667 63.334-98.667L766 782l-11.333-116.667L833.334 576l-78.667-91.333L766 368l-114.666-26.667L586 242.666l-106 44.667-108-44.667-63.334 98.667L194 368l11.333 116.667L126.666 576l78.667 89.333L194 784l114.666 26.667 66.001 98.667ZM480 576Zm-42.667 136L664 486.667 615.334 440 437.333 616.667l-92-94L296 571.333 437.333 712Z"/></svg>